<svg xmlns="http://www.w3.org/2000/svg" width="41" height="25" viewBox="0 0 41 25" fill="none">
  <g clip-path="url(#clip0_21048_1812)">
    <path d="M17.0082 0.759534C17.5563 1.02505 18.0604 1.35045 18.4205 1.85552C18.6346 2.15697 18.7046 2.49036 18.6306 2.85569C18.5106 3.45859 18.1085 3.77201 17.5523 3.93771C17.4063 3.98163 17.3243 3.96166 17.3043 3.78C17.2402 3.19906 16.9562 2.75987 16.424 2.49236C15.2557 1.90743 14.1355 2.8517 14.1095 3.92174C14.1015 4.23716 14.1075 4.55258 14.0975 4.87C14.0935 5.01174 14.1295 5.04767 14.2815 5.02771C15.8879 4.82209 17.2943 5.22135 18.4445 6.40119C18.9787 6.95018 19.5268 7.48321 20.0589 8.0322C20.181 8.15797 20.241 8.13202 20.349 8.01823C21.0432 7.28956 21.7634 6.58685 22.5015 5.9041C22.6596 5.75837 22.6136 5.60864 22.6136 5.44694C22.6136 4.9219 22.6256 4.39487 22.6136 3.86983C22.5936 2.89961 23.0197 2.11904 23.6618 1.44627C24.0699 1.01906 24.5901 0.749552 25.1762 0.613801C26.4245 0.326328 27.5068 0.643746 28.445 1.49219C28.7391 1.7577 28.9431 2.09708 28.9931 2.48038C29.0452 2.88564 28.8831 3.26095 28.573 3.53844C28.365 3.72609 28.1469 3.91375 27.8289 3.91175C27.6808 3.91175 27.6288 3.84987 27.6068 3.72011C27.5568 3.43663 27.4788 3.16512 27.2927 2.93355C26.9266 2.48437 26.4385 2.25479 25.8764 2.31868C25.2042 2.39653 24.7501 2.7958 24.502 3.44261C24.388 3.74007 24.46 4.03553 24.422 4.33099C24.402 4.47872 24.432 4.63243 24.41 4.77817C24.378 4.9798 24.454 5.0317 24.6421 5.00575C24.8141 4.98179 24.9882 4.9758 25.1622 4.96183C25.4303 4.98778 25.7003 5.01773 25.9664 5.03969C26.9186 5.11754 27.6988 5.53079 28.367 6.17161C29.2432 7.01207 30.0934 7.87848 30.9516 8.73691C32.1679 9.95667 33.3782 11.1824 34.5965 12.3982C36.0989 13.8955 37.6153 15.3767 39.1096 16.882C39.8158 17.5947 40.2559 18.4491 40.3179 19.4712C40.406 20.0781 40.33 20.665 40.1699 21.256C39.9899 21.9247 39.6498 22.4957 39.2117 23.0187C38.6735 23.5458 38.0834 23.9889 37.3612 24.2405C36.685 24.4741 35.9949 24.5 35.2907 24.4601C34.7966 24.4321 34.3345 24.2764 33.9044 24.0628C33.2822 23.7554 32.7621 23.2982 32.27 22.8091C30.1114 20.663 28.0089 18.4651 25.7924 16.3789C25.2662 15.8838 24.8141 15.3168 24.284 14.8277C24.0599 14.6201 23.8299 14.4185 23.6138 14.2029C23.2637 13.8555 22.9376 13.4822 22.5716 13.1488C22.3835 12.9771 22.1735 12.8154 22.0354 12.5898C21.9254 12.4781 21.8134 12.3643 21.7033 12.2525C21.4513 11.9969 21.1992 11.7374 20.9452 11.4839C20.243 10.7832 19.5348 10.0884 18.8346 9.38572C18.1845 8.73292 17.5503 8.06215 16.8681 7.43929C16.5501 7.14982 16.186 6.96017 15.7619 6.89029C15.6018 6.81643 15.4318 6.80645 15.2617 6.80046H15.0617C14.7016 6.76452 14.3695 6.85236 14.0555 7.02804C13.6894 7.15581 13.3973 7.39337 13.1292 7.65689C12.353 8.41749 11.5828 9.18609 10.8126 9.95468C10.1085 10.6574 9.4083 11.3661 8.70813 12.0728C8.64011 12.1087 8.5881 12.1606 8.55209 12.2285C8.07397 12.6777 7.60785 13.1408 7.15974 13.62C6.52559 14.2448 5.88943 14.8657 5.25727 15.4925C4.37705 16.3649 3.49884 17.2413 2.62062 18.1177C1.88444 18.8504 1.68839 19.7607 1.93645 20.7169C2.1345 21.4835 2.66063 22.0745 3.40281 22.4158C4.40106 22.877 5.34129 22.7333 6.20751 22.0844C6.40956 21.9327 6.53359 21.9287 6.70763 22.1204C6.9997 22.4398 7.31378 22.7372 7.62986 23.0327C7.74389 23.1385 7.72588 23.2004 7.62186 23.2862C6.83566 23.941 5.96545 24.4102 4.91919 24.4581C4.28503 24.488 3.65288 24.494 3.04473 24.2565C1.53435 23.6655 0.502096 22.5995 0.138006 21.0324C-0.220083 19.4952 0.134005 18.0698 1.25628 16.8999C1.77441 16.3589 2.31654 15.8419 2.84868 15.3148C2.90669 15.257 2.9587 15.1931 3.01272 15.1312C3.55685 14.5922 4.10699 14.0552 4.64712 13.5102C5.20726 12.9452 5.7634 12.3782 6.31353 11.8033C6.42756 11.6835 6.5896 11.6236 6.67762 11.4779C7.71588 10.4478 8.75214 9.41566 9.79039 8.38356C10.4866 7.69282 11.1787 6.9981 11.8769 6.30936C11.9789 6.20755 12.045 6.07379 12.185 6.00392C12.253 5.96998 12.279 5.87815 12.279 5.78632C12.279 5.26128 12.293 4.73425 12.279 4.20921C12.239 2.76785 12.8752 1.69781 14.0635 0.927226C14.0975 0.905266 14.1295 0.879314 14.1615 0.855358C14.7956 0.557903 15.4618 0.438123 16.16 0.509991C16.178 0.567885 16.22 0.553911 16.262 0.545925C16.5121 0.613801 16.7621 0.681676 17.0122 0.749552L17.0082 0.759534ZM33.0802 21.0144C33.3382 21.2739 33.5943 21.5354 33.8523 21.795C34.4265 22.3719 35.0887 22.7093 35.9369 22.6793C36.667 22.6534 37.2712 22.3919 37.7693 21.8788C38.3095 21.3238 38.5535 20.6611 38.5215 19.8745C38.4955 19.2636 38.3315 18.7306 37.9074 18.2934C37.1052 17.4689 36.293 16.6524 35.4788 15.8399C32.7881 13.1528 30.0974 10.4677 27.4048 7.78266C26.8826 7.26161 26.2945 6.87033 25.5343 6.79846C24.6321 6.71462 23.9039 7.06797 23.2797 7.68484C22.6656 8.20588 22.1675 8.84272 21.5533 9.36376C21.4653 9.43962 21.5373 9.49751 21.5893 9.54742C22.0954 10.0485 22.6016 10.5496 23.1077 11.0507C23.3217 11.3002 23.5558 11.5278 23.8059 11.7414C24.8681 12.8055 25.9284 13.8755 26.9987 14.9316C27.4128 15.3388 27.7928 15.776 28.219 16.1753C29.1772 17.0736 30.0914 18.0199 31.0217 18.9482C31.7098 19.6349 32.398 20.3237 33.0842 21.0124L33.0802 21.0144Z" fill="url(#paint0_linear_21048_1812)"/>
    <path d="M18.2165 20.2937C18.4866 20.0362 18.7606 19.7807 19.0287 19.5211C19.9569 18.6268 20.8872 17.7324 21.8074 16.8301C21.9714 16.6684 22.0695 16.6724 22.2215 16.8401C22.5196 17.1655 22.8356 17.4729 23.1537 17.7783C23.2818 17.9021 23.2758 17.978 23.1477 18.0997C21.4093 19.7727 19.6669 21.4416 17.9444 23.1305C17.2283 23.8332 16.39 24.3183 15.4158 24.4481C13.5673 24.6937 12.045 24.0788 10.9567 22.5196C10.5026 21.8708 10.2685 21.1501 10.2025 20.3616C10.0905 18.9941 10.5286 17.8262 11.4768 16.862C13.1412 15.1711 14.8317 13.5082 16.5061 11.8292C16.6241 11.7115 16.6841 11.7334 16.7841 11.8372C17.1262 12.1886 17.4723 12.5379 17.8284 12.8753C17.9284 12.9711 17.9224 13.0171 17.8304 13.1089C16.4321 14.5003 15.0377 15.8938 13.6414 17.2872C13.3353 17.5927 13.0132 17.8841 12.7251 18.2075C12.107 18.9023 11.8589 19.7068 12.071 20.6331C12.133 20.8986 12.223 21.1482 12.3871 21.3678C12.4271 21.4316 12.4611 21.4975 12.5051 21.5554C13.2013 22.4617 14.1095 22.855 15.2438 22.6195C15.8159 22.4997 16.31 22.2042 16.7161 21.775C16.9782 21.4995 17.2243 21.2041 17.5123 20.9565C17.7564 20.7449 17.9924 20.5293 18.2145 20.2957L18.2165 20.2937Z" fill="url(#paint1_linear_21048_1812)"/>
  </g>
  <defs>
    <linearGradient id="paint0_linear_21048_1812" x1="20.1795" y1="0.489685" x2="20.1795" y2="24.4755" gradientUnits="userSpaceOnUse">
      <stop offset="0.33" stop-color="#0D8686"/>
      <stop offset="1" stop-color="#2D2D2D"/>
    </linearGradient>
    <linearGradient id="paint1_linear_21048_1812" x1="16.7161" y1="11.7498" x2="16.7161" y2="24.5004" gradientUnits="userSpaceOnUse">
      <stop offset="0.33" stop-color="#0D8686"/>
      <stop offset="1" stop-color="#2D2D2D"/>
    </linearGradient>
    <clipPath id="clip0_21048_1812">
      <rect width="40.354" height="24" fill="white" transform="translate(0 0.5)"/>
    </clipPath>
  </defs>
</svg>