<svg xmlns="http://www.w3.org/2000/svg" width="25" height="25" viewBox="0 0 25 25" fill="none">
  <path d="M23.9269 24.4944C23.8115 24.4944 23.6961 24.4944 23.5807 24.4944C19.6466 24.4944 15.7124 24.5108 11.7782 24.4886C7.04055 24.4614 2.54947 21.3765 0.898102 16.9349C-0.842856 12.2539 -0.060894 7.95775 3.31781 4.28088C5.94609 1.4211 9.32265 0.156052 13.1973 0.580362C18.021 1.1086 21.4649 3.68456 23.2016 8.19858C24.9562 12.7563 24.0473 16.9607 20.8392 20.6541C20.7697 20.7336 20.6944 20.8082 20.6235 20.8863C20.6084 20.9028 20.5984 20.925 20.5504 21.0017C21.6957 22.1148 22.8518 23.2379 24.0079 24.3618C23.9807 24.4062 23.9534 24.4506 23.9262 24.4951L23.9269 24.4944ZM17.9637 18.5332C18.1407 18.334 18.2589 18.2064 18.3708 18.0738C20.435 15.6068 21.0542 12.8072 20.0107 9.77397C18.1292 4.30597 11.6793 2.33709 6.99827 5.73013C3.4884 8.27455 2.52295 13.3218 4.87887 16.9629C6.57754 19.5876 9.02234 20.9128 12.1466 20.9408C14.6602 20.9637 17.1738 20.9436 19.6874 20.9422C19.9039 20.9422 20.1203 20.9422 20.3375 20.9422C20.3626 20.9013 20.3884 20.8598 20.4135 20.8189C19.6028 20.062 18.7922 19.3052 17.9644 18.5332H17.9637Z" fill="#2D2D2D"/>
</svg>