<svg width="88" height="24" viewBox="0 0 88 24" fill="none" xmlns="http://www.w3.org/2000/svg">
<g clip-path="url(#clip0_21048_1515)">
<path d="M17.8312 0.259595C18.3793 0.525108 18.8834 0.850511 19.2435 1.35559C19.4576 1.65703 19.5276 1.99042 19.4536 2.35575C19.3335 2.95865 18.9314 3.27207 18.3753 3.43777C18.2293 3.48169 18.1473 3.46172 18.1273 3.28006C18.0632 2.69912 17.7792 2.25993 17.247 1.99242C16.0787 1.40749 14.9585 2.35176 14.9325 3.4218C14.9245 3.73722 14.9305 4.05264 14.9205 4.37006C14.9165 4.5118 14.9525 4.54773 15.1045 4.52777C16.7109 4.32215 18.1172 4.72141 19.2675 5.90125C19.8017 6.45025 20.3498 6.98327 20.8819 7.53226C21.004 7.65803 21.064 7.63208 21.172 7.51829C21.8662 6.78962 22.5864 6.08691 23.3245 5.40416C23.4826 5.25843 23.4366 5.10871 23.4366 4.947C23.4366 4.42196 23.4486 3.89493 23.4366 3.36989C23.4166 2.39967 23.8427 1.6191 24.4848 0.946336C24.8929 0.519119 25.4131 0.249613 25.9992 0.113862C27.2475 -0.173611 28.3298 0.143807 29.268 0.992251C29.5621 1.25776 29.7661 1.59714 29.8161 1.98044C29.8682 2.3857 29.7061 2.76101 29.396 3.0385C29.188 3.22616 28.9699 3.41381 28.6519 3.41182C28.5038 3.41182 28.4518 3.34993 28.4298 3.22017C28.3798 2.93669 28.3018 2.66518 28.1157 2.43361C27.7496 1.98443 27.2615 1.75485 26.6994 1.81874C26.0272 1.89659 25.5731 2.29586 25.325 2.94268C25.211 3.24013 25.283 3.53559 25.245 3.83105C25.225 3.97878 25.255 4.13249 25.233 4.27823C25.201 4.47986 25.277 4.53176 25.4651 4.50581C25.6371 4.48185 25.8112 4.47586 25.9852 4.46189C26.2533 4.48784 26.5233 4.51779 26.7894 4.53975C27.7416 4.61761 28.5218 5.03085 29.19 5.67167C30.0662 6.51213 30.9164 7.37854 31.7746 8.23697C32.9909 9.45673 34.2012 10.6825 35.4195 11.8983C36.9219 13.3955 38.4383 14.8768 39.9326 16.382C40.6388 17.0947 41.0789 17.9492 41.1409 18.9713C41.229 19.5782 41.153 20.1651 40.9929 20.756C40.8129 21.4248 40.4728 21.9957 40.0347 22.5188C39.4965 23.0458 38.9064 23.489 38.1842 23.7405C37.508 23.9741 36.8179 24.0001 36.1137 23.9601C35.6196 23.9322 35.1575 23.7765 34.7274 23.5629C34.1052 23.2554 33.5851 22.7983 33.093 22.3092C30.9344 20.1631 28.8319 17.9651 26.6154 15.879C26.0892 15.3839 25.6371 14.8169 25.107 14.3278C24.8829 14.1202 24.6529 13.9186 24.4368 13.7029C24.0867 13.3556 23.7606 12.9823 23.3946 12.6489C23.2065 12.4772 22.9965 12.3155 22.8584 12.0899C22.7484 11.9781 22.6364 11.8643 22.5263 11.7525C22.2743 11.497 22.0222 11.2375 21.7682 10.9839C21.066 10.2832 20.3578 9.58849 19.6576 8.88578C19.0075 8.23298 18.3733 7.56221 17.6911 6.93935C17.3731 6.64988 17.009 6.46023 16.5849 6.39035C16.4248 6.31649 16.2548 6.30651 16.0847 6.30052H15.8847C15.5246 6.26459 15.1925 6.35243 14.8784 6.5281C14.5124 6.65587 14.2203 6.89343 13.9522 7.15695C13.176 7.91755 12.4058 8.68615 11.6356 9.45474C10.9315 10.1574 10.2313 10.8661 9.53112 11.5729C9.46311 11.6088 9.41109 11.6607 9.37509 11.7286C8.89697 12.1777 8.43085 12.6409 7.98274 13.12C7.34858 13.7449 6.71243 14.3657 6.08027 14.9926C5.20005 15.865 4.32184 16.7414 3.44362 17.6178C2.70744 18.3504 2.51139 19.2608 2.75945 20.217C2.9575 20.9836 3.48363 21.5745 4.22581 21.9159C5.22406 22.377 6.16429 22.2333 7.03051 21.5845C7.23256 21.4328 7.35659 21.4288 7.53063 21.6204C7.8227 21.9398 8.13678 22.2373 8.45286 22.5328C8.56689 22.6386 8.54888 22.7005 8.44486 22.7863C7.65866 23.4411 6.78845 23.9102 5.74219 23.9581C5.10803 23.9881 4.47587 23.9941 3.86772 23.7565C2.35735 23.1656 1.32509 22.0996 0.961004 20.5324C0.602915 18.9952 0.957003 17.5699 2.07928 16.4C2.59741 15.859 3.13954 15.3419 3.67167 14.8149C3.72969 14.757 3.7817 14.6931 3.83572 14.6312C4.37985 14.0922 4.92999 13.5552 5.47012 13.0102C6.03026 12.4453 6.5864 11.8783 7.13653 11.3033C7.25056 11.1836 7.4126 11.1237 7.50062 10.9779C8.53888 9.94783 9.57514 8.91573 10.6134 7.88362C11.3096 7.19288 12.0017 6.49816 12.6999 5.80942C12.8019 5.70761 12.868 5.57385 13.008 5.50398C13.076 5.47004 13.102 5.37821 13.102 5.28638C13.102 4.76134 13.116 4.23431 13.102 3.70927C13.062 2.26791 13.6982 1.19787 14.8865 0.427287C14.9205 0.405327 14.9525 0.379375 14.9845 0.355419C15.6186 0.0579643 16.2848 -0.0618161 16.983 0.0100521C17.001 0.067946 17.043 0.0539716 17.085 0.0459862C17.3351 0.113862 17.5851 0.181737 17.8352 0.249613L17.8312 0.259595ZM33.9032 20.5145C34.1612 20.774 34.4173 21.0355 34.6753 21.295C35.2495 21.872 35.9117 22.2094 36.7599 22.1794C37.49 22.1535 38.0942 21.8919 38.5923 21.3789C39.1325 20.8239 39.3765 20.1611 39.3445 19.3746C39.3185 18.7637 39.1545 18.2306 38.7304 17.7935C37.9282 16.969 37.116 16.1525 36.3018 15.3399C33.6111 12.6529 30.9204 9.9678 28.2278 7.28272C27.7056 6.76167 27.1175 6.37039 26.3573 6.29852C25.4551 6.21468 24.7269 6.56803 24.1027 7.1849C23.4886 7.70594 22.9905 8.34278 22.3763 8.86382C22.2883 8.93968 22.3603 8.99758 22.4123 9.04748C22.9184 9.54856 23.4246 10.0496 23.9307 10.5507C24.1447 10.8003 24.3788 11.0279 24.6289 11.2415C25.6911 12.3055 26.7514 13.3756 27.8217 14.4316C28.2358 14.8389 28.6158 15.2761 29.042 15.6753C30.0002 16.5737 30.9144 17.52 31.8446 18.4483C32.5328 19.135 33.221 19.8237 33.9072 20.5125L33.9032 20.5145Z" fill="url(#paint0_linear_21048_1515)"/>
<path d="M19.0395 19.7935C19.3096 19.5359 19.5836 19.2804 19.8517 19.0209C20.7799 18.1265 21.7102 17.2322 22.6304 16.3298C22.7944 16.1681 22.8925 16.1721 23.0445 16.3398C23.3426 16.6652 23.6586 16.9726 23.9767 17.2781C24.1047 17.4019 24.0987 17.4777 23.9707 17.5995C22.2323 19.2724 20.4899 20.9414 18.7674 22.6303C18.0513 23.333 17.213 23.8181 16.2388 23.9479C14.3903 24.1934 12.868 23.5785 11.7797 22.0194C11.3256 21.3706 11.0915 20.6499 11.0255 19.8614C10.9135 18.4939 11.3516 17.326 12.2998 16.3618C13.9642 14.6709 15.6547 13.0079 17.3291 11.329C17.4471 11.2112 17.5071 11.2332 17.6071 11.337C17.9492 11.6883 18.2953 12.0377 18.6514 12.3751C18.7514 12.4709 18.7454 12.5168 18.6534 12.6086C17.2551 14.0001 15.8607 15.3935 14.4644 16.787C14.1583 17.0924 13.8362 17.3839 13.5481 17.7073C12.93 18.402 12.6819 19.2066 12.894 20.1329C12.956 20.3984 13.046 20.6479 13.2101 20.8675C13.2501 20.9314 13.2841 20.9973 13.3281 21.0552C14.0243 21.9615 14.9325 22.3548 16.0668 22.1192C16.6389 21.9994 17.133 21.704 17.5391 21.2748C17.8012 20.9993 18.0473 20.7038 18.3353 20.4563C18.5794 20.2446 18.8154 20.029 19.0375 19.7955L19.0395 19.7935Z" fill="url(#paint1_linear_21048_1515)"/>
</g>
<path d="M50.6409 5.532L54.5329 15.5H53.0629L51.9569 12.448H47.7709L46.6369 15.5H45.2369L49.1569 5.532H50.6409ZM51.5649 11.398L49.8709 6.792L48.1489 11.398H51.5649ZM58.917 8.276V9.256H57.475V13.47C57.475 13.708 57.475 13.862 57.475 13.932C57.475 14.016 57.503 14.114 57.559 14.24C57.601 14.366 57.685 14.45 57.797 14.478C57.909 14.52 58.063 14.534 58.273 14.534C58.441 14.534 58.665 14.52 58.917 14.492V15.514C58.581 15.556 58.273 15.57 58.007 15.57C57.671 15.57 57.391 15.542 57.167 15.458C56.943 15.388 56.761 15.304 56.649 15.206C56.537 15.122 56.453 14.954 56.397 14.716C56.341 14.478 56.299 14.282 56.299 14.114C56.285 13.946 56.285 13.68 56.285 13.288V13.232V13.162V13.092V9.256H55.067V8.276H56.285V6.134H57.475V8.276H58.917ZM66.913 13.218C66.549 14.898 65.499 15.738 63.763 15.738C62.699 15.738 61.859 15.416 61.257 14.744C60.655 14.086 60.361 13.162 60.361 11.986C60.361 10.824 60.669 9.886 61.285 9.158C61.901 8.43 62.713 8.066 63.721 8.066C64.827 8.066 65.653 8.444 66.185 9.2C66.717 9.956 66.997 10.894 66.997 12.042V12.21H61.565L61.551 12.294C61.551 13.064 61.747 13.666 62.153 14.1C62.545 14.548 63.105 14.758 63.805 14.758C64.323 14.758 64.729 14.646 65.037 14.394C65.345 14.156 65.583 13.764 65.751 13.218H66.913ZM65.765 11.244C65.709 10.558 65.499 10.026 65.135 9.634C64.771 9.242 64.281 9.046 63.693 9.046C63.105 9.046 62.629 9.242 62.251 9.634C61.859 10.026 61.635 10.572 61.565 11.244H65.765ZM70.0185 5.532V15.5H68.8145V5.532H70.0185ZM78.3401 8.276L75.2461 16.424C75.1201 16.76 75.0081 17.012 74.9241 17.194C74.8401 17.376 74.7141 17.572 74.5461 17.796C74.3781 18.02 74.1821 18.174 73.9581 18.272C73.7341 18.37 73.4681 18.412 73.1601 18.412C72.9221 18.412 72.6281 18.37 72.2781 18.286V17.222C72.6141 17.334 72.8801 17.376 73.0481 17.376C73.4401 17.376 73.7201 17.18 73.8881 16.774L74.4481 15.458L71.5781 8.276H72.9221L75.0641 14.03L77.0941 8.276H78.3401ZM83.0261 8.066C84.1181 8.066 84.9581 8.402 85.5741 9.074C86.1761 9.732 86.4841 10.656 86.4841 11.846C86.4841 13.078 86.1761 14.03 85.5741 14.702C84.9581 15.388 84.1041 15.724 83.0121 15.724C81.9061 15.724 81.0381 15.388 80.4221 14.716C79.7921 14.044 79.4841 13.12 79.4841 11.916C79.4841 10.74 79.7921 9.802 80.4361 9.102C81.0661 8.416 81.9341 8.066 83.0261 8.066ZM82.9981 9.074C82.2981 9.074 81.7381 9.326 81.3321 9.83C80.9121 10.348 80.7161 11.034 80.7161 11.888C80.7161 12.784 80.9121 13.47 81.3181 13.974C81.7241 14.478 82.2981 14.716 83.0261 14.716C83.7261 14.716 84.2721 14.464 84.6641 13.96C85.0561 13.456 85.2661 12.77 85.2661 11.874C85.2661 11.02 85.0561 10.334 84.6501 9.83C84.2441 9.326 83.6981 9.074 82.9981 9.074Z" fill="#2D2D2D"/>
<defs>
<linearGradient id="paint0_linear_21048_1515" x1="21.0025" y1="-0.0102539" x2="21.0025" y2="23.9755" gradientUnits="userSpaceOnUse">
<stop offset="0.33" stop-color="#0D8686"/>
<stop offset="1" stop-color="#2D2D2D"/>
</linearGradient>
<linearGradient id="paint1_linear_21048_1515" x1="17.5391" y1="11.2495" x2="17.5391" y2="24.0002" gradientUnits="userSpaceOnUse">
<stop offset="0.33" stop-color="#0D8686"/>
<stop offset="1" stop-color="#2D2D2D"/>
</linearGradient>
<clipPath id="clip0_21048_1515">
<rect width="40.354" height="24" fill="white" transform="translate(0.822998)"/>
</clipPath>
</defs>
</svg>
